<?xml version="1.0" encoding="UTF-8"?>
<svg width="31px" height="29px" viewBox="0 0 31 29" version="1.1" xmlns="http://www.w3.org/2000/svg" xmlns:xlink="http://www.w3.org/1999/xlink">
    <title>编组</title>
    <g id="全光定制网大屏界面" stroke="none" stroke-width="1" fill="none" fill-rule="evenodd">
        <g id="主网关详情3" transform="translate(-947.000000, -874.000000)" fill="#C4C4C4" fill-rule="nonzero">
            <g id="编组-30" transform="translate(15.000000, 288.000000)">
                <g id="编组-41" transform="translate(923.000000, 586.000000)">
                    <g id="编组" transform="translate(9.000000, 0.000000)">
                        <path d="M8.58619045,5.87476188 C8.73682539,6.02539682 8.88746029,6.17603171 9.03809518,6.17603171 C9.18873012,6.17603171 9.33936502,6.17603171 9.48999996,6.02539678 C9.6406349,5.72412694 9.6406349,5.4228571 9.48999996,5.12158727 L7.07984123,2.4101587 C6.77857139,2.10888886 6.47730155,2.25952376 6.32666665,2.4101587 C6.02539682,2.71142853 6.02539682,3.16333331 6.32666665,3.31396824 L8.58619045,5.87476188 Z M21.0888888,6.17603171 C21.2395238,6.17603171 21.3901587,6.17603171 21.5407936,6.02539678 L23.8003173,3.46460314 C23.9509523,3.16333331 23.9509523,2.86206347 23.8003173,2.56079363 C23.6496824,2.2595238 23.1977777,2.2595238 23.0471428,2.56079363 L20.7876189,5.12158727 C20.636984,5.4228571 20.636984,5.72412694 20.7876189,6.02539678 C20.7876189,6.02539678 20.9382539,6.17603171 21.0888888,6.17603171 Z M15.063492,5.2722222 C15.3647618,5.2722222 15.6660317,4.97095237 15.6660317,4.66968249 L15.6660317,0.602539674 C15.6660317,0.301269837 15.3647618,0 15.063492,0 C14.7622222,0 14.4609523,0.301269837 14.4609523,0.602539674 L14.4609523,4.51904759 C14.4609523,4.97095237 14.7622222,5.2722222 15.063492,5.2722222 L15.063492,5.2722222 Z M30.126984,17.4736507 L25.4573015,9.7912698 C25.0053967,9.03809518 24.2522221,8.58619041 23.4990475,8.58619041 L6.62793649,8.58619041 C5.87476188,8.58619041 5.1215873,9.03809518 4.66968253,9.7912698 L0,17.4736507 L0,26.210476 C0,27.4155554 0.903809511,28.4699998 2.1088889,28.4699998 L28.0180951,28.4699998 C29.2231745,28.4699998 30.126984,27.4155554 30.126984,26.210476 L30.126984,17.4736507 L30.126984,17.4736507 Z M5.42285714,10.5444444 C5.72412698,10.0925396 6.02539682,9.9419047 6.47730155,9.9419047 L23.3484126,9.9419047 C23.8003174,9.9419047 24.2522221,10.2431745 24.402857,10.5444444 L28.6206348,17.4736507 L18.829365,17.4736507 C18.67873,17.4736507 18.5280951,17.6242856 18.5280951,17.9255555 L18.5280951,18.2268253 C18.5280951,20.4863491 16.871111,22.2939681 14.9128571,22.2939681 C12.9546031,22.2939681 11.297619,20.4863491 11.297619,18.2268253 L11.297619,17.9255555 C11.297619,17.7749205 11.1469841,17.4736507 10.9963491,17.4736507 L1.20507935,17.4736507 L5.42285714,10.5444444 Z M29.2231745,25.3066665 C29.2231745,26.9636507 28.7712697,27.5661903 27.1142856,27.5661903 L2.71142857,27.5661903 C1.20507939,27.5661903 0.903809511,26.9636507 0.903809511,25.3066665 L0.903809511,18.67873 L10.0925396,18.67873 C10.2431746,18.67873 10.3938095,18.829365 10.3938095,19.1306348 L10.3938095,19.4319047 C10.5444444,21.3901586 12.3520634,23.3484126 14.9128571,23.3484126 C17.4736507,23.3484126 19.2812698,21.5407936 19.4319047,19.4319047 L19.4319047,19.1306348 C19.4319047,18.9799999 19.5825396,18.67873 19.7331745,18.67873 L28.9219047,18.67873 L29.2231745,25.3066665 L29.2231745,25.3066665 Z" id="形状"></path>
                    </g>
                </g>
            </g>
        </g>
    </g>
</svg>